Coordinates
version=1
nRows=29
nColumns=22
inDegrees=yes

Units are S.I. units (second, meters, Newtons, ...)
If the header above contains a line with 'inDegrees', this indicates whether rotational values are in degrees (yes) or radians (no).

endheader
time	pelvis_tilt	pelvis_list	pelvis_rotation	pelvis_tx	pelvis_ty	pelvis_tz	hip_flexion_r	hip_adduction_r	hip_rotation_r	knee_angle_r	ankle_angle_r	subtalar_angle_r	hip_flexion_l	hip_adduction_l	hip_rotation_l	knee_angle_l	ankle_angle_l	subtalar_angle_l	lumbar_extension	lumbar_bending	lumbar_rotation
      4.19000000	     -4.25373084	      7.62335246	     -0.29716867	     -1.16481635	      1.05606344	     -0.34051301	     -2.40719174	     -7.94804695	     -3.75951716	    -23.54472871	     18.44714210	      0.79312521	     19.52006744	      8.11056795	     -3.14611198	    -14.06725711	      3.30506137	      0.85548378	     -7.68822077	     -9.21023444	      0.21977815
      4.20000000	     -4.31360415	      7.52847756	     -0.49788044	     -1.17324871	      1.05539606	     -0.33811571	     -2.34876151	     -7.75980842	     -4.11751881	    -22.58534948	     19.14626275	      0.35097202	     20.01065394	      7.78269700	     -3.44695673	    -14.00658989	      3.52060140	      1.47280230	     -7.82069185	     -9.06598375	      0.26185313
      4.21000000	     -4.36414537	      7.39826685	     -0.69629912	     -1.18169445	      1.05484344	     -0.33572010	     -2.23820030	     -7.52449336	     -4.41440489	    -21.73059821	     19.73790678	     -0.12361524	     20.48595219	      7.41986429	     -3.73769503	    -13.95803203	      3.86556030	      2.03881560	     -7.96145410	     -8.88712812	      0.28886559
      4.22000000	     -4.40555035	      7.24021002	     -0.88916531	     -1.19013099	      1.05440572	     -0.33333323	     -2.08200416	     -7.25108050	     -4.64601670	    -20.97799642	     20.24453551	     -0.61704026	     20.93917604	      7.03100877	     -4.02277221	    -13.90734395	      4.32038880	      2.52542890	     -8.10949869	     -8.68383250	      0.29199007
      4.23000000	     -4.43118530	      7.04646245	     -1.07458270	     -1.19853308	      1.05409677	     -0.33099167	     -1.90182844	     -6.93043338	     -4.78966713	    -20.30661025	     20.65599178	     -1.09139433	     21.36146164	      6.61214054	     -4.30418871	    -13.85190798	      4.85947083	      2.88415729	     -8.27128812	     -8.44065819	      0.26442142
      4.24000000	     -4.44418616	      6.83476724	     -1.24747225	     -1.20686014	      1.05389152	     -0.32870817	     -1.69210449	     -6.58590249	     -4.87704787	    -19.72974983	     20.99992483	     -1.58523686	     21.75728299	      6.18160599	     -4.59483539	    -13.79694679	      5.47095823	      3.15769103	     -8.43934739	     -8.18330493	      0.21741706
      4.25000000	     -4.40641637	      6.58556761	     -1.41373812	     -1.21504268	      1.05386976	     -0.32649559	     -1.51591709	     -6.19641746	     -4.89196476	    -19.21099921	     21.23217246	     -1.93408710	     22.07942102	      5.72126130	     -4.90615399	    -13.73967609	      6.11001113	      3.25788957	     -8.65256237	     -7.88781061	      0.15960504
      4.26000000	     -4.37889072	      6.31817196	     -1.56133569	     -1.22313276	      1.05390429	     -0.32439757	     -1.27800533	     -5.78369186	     -4.84343964	    -18.80784248	     21.44069557	     -2.45960715	     22.41933970	      5.24550932	     -5.27076822	    -13.72720089	      6.71417967	      3.41122612	     -8.84688484	     -7.56465746	      0.03914300
      4.27000000	     -4.28849669	      6.02384858	     -1.69956850	     -1.23098663	      1.05413671	     -0.32238851	     -1.08183247	     -5.34503738	     -4.77236075	    -18.48320299	     21.54805698	     -2.83811838	     22.67892811	      4.74753243	     -5.70029863	    -13.74739178	      7.29215608	      3.46275349	     -9.09136365	     -7.21857025	     -0.08818946
      4.28000000	     -4.16043104	      5.71017629	     -1.83061770	     -1.23861744	      1.05452750	     -0.32049468	     -0.88445150	     -4.89177201	     -4.68201300	    -18.26528138	     21.57302310	     -3.18417829	     22.89895572	      4.23137353	     -6.20367205	    -13.83897815	      7.81631792	      3.49292910	     -9.35864493	     -6.85097138	     -0.24059465
      4.29000000	     -4.02844469	      5.37627784	     -1.93618600	     -1.24595608	      1.05504334	     -0.31872557	     -0.68103184	     -4.41944470	     -4.59547956	    -18.10282081	     21.52902403	     -3.60620577	     23.12790658	      3.69034348	     -6.83123025	    -14.04525321	      8.21893335	      3.55972554	     -9.59702571	     -6.46348059	     -0.40628037
      4.30000000	     -3.85302457	      5.03346925	     -2.02921476	     -1.25301834	      1.05573921	     -0.31708549	     -0.49326219	     -3.94699175	     -4.49670808	    -18.03271401	     21.39843944	     -3.94341487	     23.32380038	      3.13603094	     -7.55425607	    -14.38683206	      8.56423188	      3.59499734	     -9.85984076	     -6.06752360	     -0.60840187
      4.31000000	     -3.62191449	      4.68251408	     -2.11122613	     -1.25975738	      1.05664942	     -0.31555359	     -0.36334480	     -3.47308045	     -4.38049802	    -18.00077475	     21.19034383	     -4.11318740	     23.46767828	      2.56579042	     -8.36277481	    -14.87557933	      8.81908600	      3.56495802	    -10.15424736	     -5.66667959	     -0.83754706
      4.32000000	     -3.43303719	      4.33803839	     -2.17629455	     -1.26620993	      1.05760438	     -0.31410612	     -0.18856730	     -3.00329177	     -4.23306315	    -17.99823246	     20.92742887	     -4.43448818	     23.66968085	      1.98039994	     -9.27129220	    -15.52871124	      8.96651735	      3.57230522	    -10.36376119	     -5.28105659	     -1.08342427
      4.33000000	     -3.19727722	      4.01934896	     -2.22786522	     -1.27234723	      1.05871615	     -0.31274159	     -0.06998649	     -2.56709415	     -4.09360645	    -18.01819913	     20.62186033	     -4.64451018	     23.81754945	      1.41132643	    -10.19982900	    -16.33196816	      9.10709987	      3.50949439	    -10.59529717	     -4.93606847	     -1.35147667
      4.34000000	     -2.94309123	      3.72989225	     -2.27374094	     -1.27820674	      1.05992181	     -0.31141612	      0.01805926	     -2.16402122	     -3.95930064	    -18.04540423	     20.29042030	     -4.82338271	     23.93431441	      0.85580435	    -11.12003578	    -17.27174713	      9.22732385	      3.40924169	    -10.81868127	     -4.63944516	     -1.61913900
      4.35000000	     -2.70124402	      3.47324760	     -2.32134728	     -1.28381464	      1.06115803	     -0.31009516	      0.09191120	     -1.78918178	     -3.79630463	    -18.04500690	     19.94517833	     -5.05205647	     24.04307521	      0.31715839	    -11.98923565	    -18.32699206	      9.31172666	      3.27715707	    -10.99883791	     -4.39743004	     -1.88284752
      4.36000000	     -2.49465964	      3.25927821	     -2.36941935	     -1.28919400	      1.06236144	     -0.30876111	      0.16954710	     -1.45130113	     -3.62510924	    -18.00195862	     19.60323886	     -5.45509284	     24.16237940	     -0.18976968	    -12.76726167	    -19.47856028	      9.35330946	      3.07540592	    -11.11393599	     -4.22378389	     -2.13114456
      4.37000000	     -2.22935007	      3.05760566	     -2.43808645	     -1.29437935	      1.06366244	     -0.30740696	      0.17090820	     -1.13275763	     -3.47409945	    -17.95416400	     19.25601797	     -5.65007114	     24.17456068	     -0.68354099	    -13.40386674	    -20.68801476	      9.42648581	      2.90719088	    -11.28612247	     -4.08037356	     -2.35103964
      4.38000000	     -2.00508446	      2.88900319	     -2.52051993	     -1.29940059	      1.06487529	     -0.30602524	      0.18503999	     -0.84298983	     -3.31221383	    -17.86214107	     18.92181245	     -6.09093935	     24.19856792	     -1.14511567	    -13.90633851	    -21.96143259	      9.44696298	      2.62588519	    -11.39682525	     -3.99266254	     -2.52723765
      4.39000000	     -1.75038180	      2.71737413	     -2.62787944	     -1.30428791	      1.06610377	     -0.30462339	      0.14905192	     -0.55453220	     -3.13439503	    -17.75398799	     18.59086798	     -6.29104618	     24.15260638	     -1.60036028	    -14.24298525	    -23.28103943	      9.49180509	      2.43211538	    -11.54052764	     -3.91474634	     -2.65928832
      4.40000000	     -1.52658117	      2.56731678	     -2.75085469	     -1.30905646	      1.06721673	     -0.30322403	      0.13430503	     -0.29062292	     -2.95906501	    -17.63535681	     18.28291113	     -6.71113386	     24.11011442	     -2.02069759	    -14.43368205	    -24.64432751	      9.49471269	      2.09448852	    -11.64340708	     -3.87422109	     -2.74125296
      4.41000000	     -1.29735913	      2.41331069	     -2.89415592	     -1.31370013	      1.06827485	     -0.30183801	      0.09669629	     -0.02780559	     -2.75201848	    -17.50334038	     17.98348413	     -6.97605533	     24.03063398	     -2.42574044	    -14.46934746	    -26.04191295	      9.51642834	      1.81231409	    -11.75012935	     -3.83728147	     -2.77543655
      4.42000000	     -1.06195681	      2.25091552	     -3.06077738	     -1.31827351	      1.06926849	     -0.30047483	      0.06214743	      0.23579560	     -2.52085284	    -17.40238453	     17.70083423	     -7.15640786	     23.91671563	     -2.81398370	    -14.34893053	    -27.46560573	      9.52386665	      1.57560091	    -11.86984265	     -3.79805755	     -2.75325248
      4.43000000	     -0.84758652	      2.09280514	     -3.23046256	     -1.32271763	      1.07014972	     -0.29917631	      0.03548563	      0.48867447	     -2.28353844	    -17.29279691	     17.43188335	     -7.37940088	     23.80052471	     -3.16828947	    -14.10378939	    -28.91296235	      9.53571547	      1.28180675	    -11.95987168	     -3.76495862	     -2.70340830
      4.44000000	     -0.66571168	      1.93982280	     -3.39139337	     -1.32702567	      1.07089675	     -0.29795787	      0.03631774	      0.72915197	     -2.07770976	    -17.19135459	     17.20517362	     -7.70239935	     23.69722611	     -3.48296355	    -13.74443453	    -30.37745627	      9.51867527	      0.87330879	    -12.00356053	     -3.73793377	     -2.62805129
      4.45000000	     -0.47622892	      1.77679168	     -3.55741769	     -1.33119993	      1.07161152	     -0.29681229	      0.01277195	      0.97197097	     -1.84791093	    -17.08103828	     16.96883991	     -7.86922320	     23.55107226	     -3.77000677	    -13.27303535	    -31.83215802	      9.52897437	      0.59602840	    -12.05177064	     -3.69752689	     -2.52308095
      4.46000000	     -0.29182837	      1.60995359	     -3.71509617	     -1.33521507	      1.07227192	     -0.29575364	     -0.02435527	      1.21097026	     -1.63144770	    -16.95975710	     16.73830559	     -7.98367516	     23.38048645	     -4.03093683	    -12.74739259	    -33.27816104	      9.53472612	      0.36903037	    -12.08436060	     -3.64842154	     -2.42476964
      4.47000000	     -0.12812892	      1.44348256	     -3.85154834	     -1.33905235	      1.07286779	     -0.29478740	     -0.07108216	      1.44458182	     -1.43730599	    -16.80497563	     16.55809933	     -8.08846430	     23.19588728	     -4.24982121	    -12.14058214	    -34.69062719	      9.51345052	      0.15132891	    -12.07854950	     -3.59943799	     -2.30169812
